<svg xmlns="http://www.w3.org/2000/svg" viewBox="-181.0 -900.0 5271.0 1100.0" width="1054" height="220"><title>Zerufy</title><rect x="-181.0" y="-900.0" width="5271.0" height="1100.0" fill="#0a0a0a"/><path d="M19 -98 223 -600H29V-700H341V-602L137 -100H341V0H19Z" fill="#f4f4f4"/><path d="M423 -700H723V-600H533V-415H684V-315H533V-100H723V0H423Z" fill="#f4f4f4"/><path d="M806 -700H969Q1054 -700 1093 -660.5Q1132 -621 1132 -539V-496Q1132 -387 1060 -358V-356Q1100 -344 1116.5 -307Q1133 -270 1133 -208V-85Q1133 -55 1135 -36.5Q1137 -18 1145 0H1033Q1027 -17 1025 -32Q1023 -47 1023 -86V-214Q1023 -262 1007.5 -281Q992 -300 954 -300H916V0H806ZM956 -400Q989 -400 1005.5 -417Q1022 -434 1022 -474V-528Q1022 -566 1008.5 -583Q995 -600 966 -600H916V-400Z" fill="#f4f4f4"/><path d="M1225 -166V-700H1335V-158Q1335 -122 1349.5 -106Q1364 -90 1391 -90Q1418 -90 1432.5 -106Q1447 -122 1447 -158V-700H1553V-166Q1553 -81 1511 -35.5Q1469 10 1389 10Q1309 10 1267 -35.5Q1225 -81 1225 -166Z" fill="#f4f4f4"/><path d="M1651 -700H1942V-600H1761V-405H1903V-305H1761V0H1651Z" fill="#f4f4f4"/><path d="M2116 -298 1983 -700H2100L2175 -443H2177L2252 -700H2359L2226 -298V0H2116Z" fill="#f4f4f4"/><path d="M2579 -166V-206H2683V-158Q2683 -90 2740 -90Q2768 -90 2782.5 -106.5Q2797 -123 2797 -160Q2797 -204 2777 -237.5Q2757 -271 2703 -318Q2635 -378 2608 -426.5Q2581 -475 2581 -536Q2581 -619 2623 -664.5Q2665 -710 2745 -710Q2824 -710 2864.5 -664.5Q2905 -619 2905 -534V-505H2801V-541Q2801 -577 2787 -593.5Q2773 -610 2746 -610Q2691 -610 2691 -543Q2691 -505 2711.5 -472Q2732 -439 2786 -392Q2855 -332 2881 -283Q2907 -234 2907 -168Q2907 -82 2864.5 -36Q2822 10 2741 10Q2661 10 2620 -35.5Q2579 -81 2579 -166Z" fill="#f4f4f4"/><path d="M3076 -600H2961V-700H3301V-600H3186V0H3076Z" fill="#f4f4f4"/><path d="M3370 -166V-700H3480V-158Q3480 -122 3494.5 -106Q3509 -90 3536 -90Q3563 -90 3577.5 -106Q3592 -122 3592 -158V-700H3698V-166Q3698 -81 3656 -35.5Q3614 10 3534 10Q3454 10 3412 -35.5Q3370 -81 3370 -166Z" fill="#f4f4f4"/><path d="M3796 -700H3964Q4046 -700 4087 -656Q4128 -612 4128 -527V-173Q4128 -88 4087 -44Q4046 0 3964 0H3796ZM3962 -100Q3989 -100 4003.5 -116Q4018 -132 4018 -168V-532Q4018 -568 4003.5 -584Q3989 -600 3962 -600H3906V-100Z" fill="#f4f4f4"/><path d="M4222 -700H4332V0H4222Z" fill="#f4f4f4"/><path d="M4426 -166V-534Q4426 -618 4469 -664Q4512 -710 4593 -710Q4674 -710 4717 -664Q4760 -618 4760 -534V-166Q4760 -82 4717 -36Q4674 10 4593 10Q4512 10 4469 -36Q4426 -82 4426 -166ZM4650 -159V-541Q4650 -610 4593 -610Q4536 -610 4536 -541V-159Q4536 -90 4593 -90Q4650 -90 4650 -159Z" fill="#f4f4f4"/><rect x="4790.0" y="-100.0" width="100" height="100" fill="#e8352a"/></svg>